# xmcd CD database file
#
# Track frame offsets:
#	150
#	17700
#	35475
#	54637
#	70050
#	83175
#	96975
#	114000
#	127575
#	166762
#	183600
#	196125
#	231300
#	251550
#	275850
#
# Disc length: 3896 seconds
#
# Revision: 0
# Processed by: cddbd v1.5.2PL0 Copyright (c) Steve Scherf et al.
# Submitted via: CDex 1.51
#
DISCID=c60f360f
DTITLE=Rod Piazza - Modern Master CD 1
DYEAR=2003
DGENRE=Blues
TTITLE0=Spoonful
TTITLE1=Juicy Harmonica
TTITLE2=Up the Line
TTITLE3=Help Me
TTITLE4=I Got to Go
TTITLE5=The Bounce
TTITLE6=Talk to Your Daughter
TTITLE7=Shot From the Saddle
TTITLE8=Blues for Honey
TTITLE9=Do the Boogie With YOu
TTITLE10=You Don't Know
TTITLE11=When I'm Wrong, I'm Wrong
TTITLE12=P.S. I Love You
TTITLE13=Texas Twister
TTITLE14=Harpburn
EXTD=YEAR: 2003
EXTT0=
EXTT1=
EXTT2=
EXTT3=
EXTT4=
EXTT5=
EXTT6=
EXTT7=
EXTT8=
EXTT9=
EXTT10=
EXTT11=
EXTT12=
EXTT13=
EXTT14=
PLAYORDER=
